<svg id="visual" viewBox="0 0 900 600" width="900" height="600" xmlns="http://www.w3.org/2000/svg" xmlns:xlink="http://www.w3.org/1999/xlink" version="1.1"><path d="M0 376L21.5 383.3C43 390.7 86 405.3 128.8 412.5C171.7 419.7 214.3 419.3 257.2 422.2C300 425 343 431 385.8 424.5C428.7 418 471.3 399 514.2 389.7C557 380.3 600 380.7 642.8 398C685.7 415.3 728.3 449.7 771.2 450.8C814 452 857 420 878.5 404L900 388L900 601L878.5 601C857 601 814 601 771.2 601C728.3 601 685.7 601 642.8 601C600 601 557 601 514.2 601C471.3 601 428.7 601 385.8 601C343 601 300 601 257.2 601C214.3 601 171.7 601 128.8 601C86 601 43 601 21.5 601L0 601Z" fill="#cfcfc2" stroke-linecap="round" stroke-linejoin="miter"></path></svg>